<mxfile host="Electron" modified="2023-11-07T11:39:04.469Z" agent="Mozilla/5.0 (Macintosh; Intel Mac OS X 10_15_7) AppleWebKit/537.36 (KHTML, like Gecko) draw.io/21.6.8 Chrome/114.0.5735.289 Electron/25.5.0 Safari/537.36" etag="p2hed0uEHOPlWv02UapN" version="21.6.8" type="device" pages="2">
  <diagram name="wireframe" id="lhiUxsngjOxcIAZhPziS">
    <mxGraphModel dx="957" dy="1899" grid="1" gridSize="10" guides="1" tooltips="1" connect="1" arrows="1" fold="1" page="1" pageScale="1" pageWidth="827" pageHeight="1169" math="0" shadow="0">
      <root>
        <mxCell id="0" />
        <mxCell id="1" parent="0" />
        <mxCell id="bjyF0Ei3XKulyTfPg9Wv-1" value="" style="rounded=0;whiteSpace=wrap;html=1;" vertex="1" parent="1">
          <mxGeometry x="40" y="40" width="320" height="560" as="geometry" />
        </mxCell>
        <mxCell id="bjyF0Ei3XKulyTfPg9Wv-3" value="" style="rounded=0;whiteSpace=wrap;html=1;" vertex="1" parent="1">
          <mxGeometry x="40" y="540" width="320" height="60" as="geometry" />
        </mxCell>
        <mxCell id="bjyF0Ei3XKulyTfPg9Wv-4" value="My favorites" style="ellipse;whiteSpace=wrap;html=1;aspect=fixed;fillColor=#dae8fc;strokeColor=#6c8ebf;" vertex="1" parent="1">
          <mxGeometry x="130" y="550" width="40" height="40" as="geometry" />
        </mxCell>
        <mxCell id="bjyF0Ei3XKulyTfPg9Wv-5" value="Characters" style="ellipse;whiteSpace=wrap;html=1;aspect=fixed;" vertex="1" parent="1">
          <mxGeometry x="230" y="550" width="40" height="40" as="geometry" />
        </mxCell>
        <mxCell id="bjyF0Ei3XKulyTfPg9Wv-6" value="" style="rounded=0;whiteSpace=wrap;html=1;" vertex="1" parent="1">
          <mxGeometry x="600" y="40" width="320" height="560" as="geometry" />
        </mxCell>
        <mxCell id="bjyF0Ei3XKulyTfPg9Wv-7" value="" style="rounded=0;whiteSpace=wrap;html=1;" vertex="1" parent="1">
          <mxGeometry x="600" y="540" width="320" height="60" as="geometry" />
        </mxCell>
        <mxCell id="bjyF0Ei3XKulyTfPg9Wv-8" value="My favorites" style="ellipse;whiteSpace=wrap;html=1;aspect=fixed;fillColor=#dae8fc;strokeColor=#6c8ebf;" vertex="1" parent="1">
          <mxGeometry x="690" y="550" width="40" height="40" as="geometry" />
        </mxCell>
        <mxCell id="bjyF0Ei3XKulyTfPg9Wv-9" value="Characters" style="ellipse;whiteSpace=wrap;html=1;aspect=fixed;" vertex="1" parent="1">
          <mxGeometry x="790" y="550" width="40" height="40" as="geometry" />
        </mxCell>
        <mxCell id="bjyF0Ei3XKulyTfPg9Wv-10" value="&lt;h1&gt;My favorites&lt;/h1&gt;&lt;p&gt;&lt;br&gt;&lt;/p&gt;" style="text;html=1;strokeColor=none;fillColor=none;spacing=5;spacingTop=-20;whiteSpace=wrap;overflow=hidden;rounded=0;" vertex="1" parent="1">
          <mxGeometry x="55" y="70" width="190" height="40" as="geometry" />
        </mxCell>
        <mxCell id="bjyF0Ei3XKulyTfPg9Wv-11" value="Filter" style="rounded=1;whiteSpace=wrap;html=1;align=left;" vertex="1" parent="1">
          <mxGeometry x="55" y="110" width="285" height="40" as="geometry" />
        </mxCell>
        <mxCell id="bjyF0Ei3XKulyTfPg9Wv-14" value="" style="group" vertex="1" connectable="0" parent="1">
          <mxGeometry x="55" y="170" width="185" height="40" as="geometry" />
        </mxCell>
        <mxCell id="bjyF0Ei3XKulyTfPg9Wv-12" value="" style="ellipse;whiteSpace=wrap;html=1;aspect=fixed;" vertex="1" parent="bjyF0Ei3XKulyTfPg9Wv-14">
          <mxGeometry width="40" height="40" as="geometry" />
        </mxCell>
        <mxCell id="bjyF0Ei3XKulyTfPg9Wv-13" value="Character 1" style="text;html=1;strokeColor=none;fillColor=none;align=left;verticalAlign=middle;whiteSpace=wrap;rounded=0;" vertex="1" parent="bjyF0Ei3XKulyTfPg9Wv-14">
          <mxGeometry x="55" y="5" width="130" height="30" as="geometry" />
        </mxCell>
        <mxCell id="bjyF0Ei3XKulyTfPg9Wv-15" value="" style="group" vertex="1" connectable="0" parent="1">
          <mxGeometry x="55" y="220" width="185" height="40" as="geometry" />
        </mxCell>
        <mxCell id="bjyF0Ei3XKulyTfPg9Wv-16" value="" style="ellipse;whiteSpace=wrap;html=1;aspect=fixed;" vertex="1" parent="bjyF0Ei3XKulyTfPg9Wv-15">
          <mxGeometry width="40" height="40" as="geometry" />
        </mxCell>
        <mxCell id="bjyF0Ei3XKulyTfPg9Wv-17" value="Character&amp;nbsp;2" style="text;html=1;strokeColor=none;fillColor=none;align=left;verticalAlign=middle;whiteSpace=wrap;rounded=0;" vertex="1" parent="bjyF0Ei3XKulyTfPg9Wv-15">
          <mxGeometry x="55" y="5" width="130" height="30" as="geometry" />
        </mxCell>
        <mxCell id="bjyF0Ei3XKulyTfPg9Wv-18" value="" style="group" vertex="1" connectable="0" parent="1">
          <mxGeometry x="55" y="270" width="185" height="40" as="geometry" />
        </mxCell>
        <mxCell id="bjyF0Ei3XKulyTfPg9Wv-19" value="" style="ellipse;whiteSpace=wrap;html=1;aspect=fixed;" vertex="1" parent="bjyF0Ei3XKulyTfPg9Wv-18">
          <mxGeometry width="40" height="40" as="geometry" />
        </mxCell>
        <mxCell id="bjyF0Ei3XKulyTfPg9Wv-20" value="Character&amp;nbsp;3" style="text;html=1;strokeColor=none;fillColor=none;align=left;verticalAlign=middle;whiteSpace=wrap;rounded=0;" vertex="1" parent="bjyF0Ei3XKulyTfPg9Wv-18">
          <mxGeometry x="55" y="5" width="130" height="30" as="geometry" />
        </mxCell>
        <mxCell id="bjyF0Ei3XKulyTfPg9Wv-21" value="&lt;h1&gt;No Favorites&lt;/h1&gt;&lt;p&gt;balbkalblaalb search&lt;/p&gt;" style="text;html=1;strokeColor=none;fillColor=none;spacing=5;spacingTop=-20;whiteSpace=wrap;overflow=hidden;rounded=0;" vertex="1" parent="1">
          <mxGeometry x="660" y="180" width="190" height="120" as="geometry" />
        </mxCell>
        <mxCell id="bjyF0Ei3XKulyTfPg9Wv-91" style="edgeStyle=orthogonalEdgeStyle;rounded=0;orthogonalLoop=1;jettySize=auto;html=1;entryX=0.5;entryY=0;entryDx=0;entryDy=0;" edge="1" parent="1" source="bjyF0Ei3XKulyTfPg9Wv-23" target="bjyF0Ei3XKulyTfPg9Wv-27">
          <mxGeometry relative="1" as="geometry">
            <Array as="points">
              <mxPoint x="755" y="730" />
              <mxPoint x="198" y="730" />
            </Array>
          </mxGeometry>
        </mxCell>
        <mxCell id="bjyF0Ei3XKulyTfPg9Wv-23" value="search&amp;nbsp;Characters" style="rounded=1;whiteSpace=wrap;html=1;fillColor=#dae8fc;strokeColor=#6c8ebf;" vertex="1" parent="1">
          <mxGeometry x="695" y="280" width="120" height="40" as="geometry" />
        </mxCell>
        <mxCell id="bjyF0Ei3XKulyTfPg9Wv-25" value="Si tenemos Personajes agregados como favoritos" style="text;html=1;strokeColor=#9673a6;fillColor=#e1d5e7;align=center;verticalAlign=middle;whiteSpace=wrap;rounded=0;" vertex="1" parent="1">
          <mxGeometry x="40" width="185" height="30" as="geometry" />
        </mxCell>
        <mxCell id="bjyF0Ei3XKulyTfPg9Wv-26" value="Si no tenemos&amp;nbsp;Personajes&amp;nbsp;agregados como favoritos debemos mostrar la pagina con el siguiente mensaje" style="text;html=1;strokeColor=#9673a6;fillColor=#e1d5e7;align=center;verticalAlign=middle;whiteSpace=wrap;rounded=0;" vertex="1" parent="1">
          <mxGeometry x="600" y="-40" width="185" height="70" as="geometry" />
        </mxCell>
        <mxCell id="bjyF0Ei3XKulyTfPg9Wv-27" value="" style="rounded=0;whiteSpace=wrap;html=1;" vertex="1" parent="1">
          <mxGeometry x="37.5" y="800" width="320" height="560" as="geometry" />
        </mxCell>
        <mxCell id="bjyF0Ei3XKulyTfPg9Wv-28" value="" style="rounded=0;whiteSpace=wrap;html=1;" vertex="1" parent="1">
          <mxGeometry x="37.5" y="1300" width="320" height="60" as="geometry" />
        </mxCell>
        <mxCell id="bjyF0Ei3XKulyTfPg9Wv-29" value="My favorites" style="ellipse;whiteSpace=wrap;html=1;aspect=fixed;" vertex="1" parent="1">
          <mxGeometry x="127.5" y="1310" width="40" height="40" as="geometry" />
        </mxCell>
        <mxCell id="bjyF0Ei3XKulyTfPg9Wv-30" value="Characters" style="ellipse;whiteSpace=wrap;html=1;aspect=fixed;fillColor=#dae8fc;strokeColor=#6c8ebf;" vertex="1" parent="1">
          <mxGeometry x="227.5" y="1310" width="40" height="40" as="geometry" />
        </mxCell>
        <mxCell id="bjyF0Ei3XKulyTfPg9Wv-31" value="&lt;h1&gt;Characters&lt;br&gt;&lt;/h1&gt;" style="text;html=1;strokeColor=none;fillColor=none;spacing=5;spacingTop=-20;whiteSpace=wrap;overflow=hidden;rounded=0;" vertex="1" parent="1">
          <mxGeometry x="52.5" y="830" width="190" height="40" as="geometry" />
        </mxCell>
        <mxCell id="bjyF0Ei3XKulyTfPg9Wv-32" value="Search" style="rounded=1;whiteSpace=wrap;html=1;align=left;" vertex="1" parent="1">
          <mxGeometry x="52.5" y="870" width="227.5" height="40" as="geometry" />
        </mxCell>
        <mxCell id="6ql8LfTuGevrxLZPXRcy-17" style="edgeStyle=orthogonalEdgeStyle;rounded=0;orthogonalLoop=1;jettySize=auto;html=1;entryX=0.5;entryY=0;entryDx=0;entryDy=0;" edge="1" parent="1" source="bjyF0Ei3XKulyTfPg9Wv-43" target="6ql8LfTuGevrxLZPXRcy-1">
          <mxGeometry relative="1" as="geometry" />
        </mxCell>
        <mxCell id="bjyF0Ei3XKulyTfPg9Wv-43" value="O" style="rounded=1;whiteSpace=wrap;html=1;align=center;fillColor=#ffe6cc;strokeColor=#d79b00;" vertex="1" parent="1">
          <mxGeometry x="290" y="870" width="47.5" height="40" as="geometry" />
        </mxCell>
        <mxCell id="bjyF0Ei3XKulyTfPg9Wv-44" value="F: boton con icono de ordenación. Abriría un popover con opciones de ordenación:&lt;br&gt;( ) Por nombre&lt;br&gt;( ) Por ...&amp;nbsp;" style="text;html=1;strokeColor=#9673a6;fillColor=#e1d5e7;align=left;verticalAlign=middle;whiteSpace=wrap;rounded=0;" vertex="1" parent="1">
          <mxGeometry x="370" y="830" width="180" height="90" as="geometry" />
        </mxCell>
        <mxCell id="bjyF0Ei3XKulyTfPg9Wv-53" value="" style="group" vertex="1" connectable="0" parent="1">
          <mxGeometry x="50" y="930" width="185" height="40" as="geometry" />
        </mxCell>
        <mxCell id="bjyF0Ei3XKulyTfPg9Wv-54" value="" style="ellipse;whiteSpace=wrap;html=1;aspect=fixed;" vertex="1" parent="bjyF0Ei3XKulyTfPg9Wv-53">
          <mxGeometry width="40" height="40" as="geometry" />
        </mxCell>
        <mxCell id="bjyF0Ei3XKulyTfPg9Wv-55" value="Character 1" style="text;html=1;strokeColor=none;fillColor=none;align=left;verticalAlign=middle;whiteSpace=wrap;rounded=0;" vertex="1" parent="bjyF0Ei3XKulyTfPg9Wv-53">
          <mxGeometry x="55" y="5" width="130" height="30" as="geometry" />
        </mxCell>
        <mxCell id="bjyF0Ei3XKulyTfPg9Wv-56" value="" style="group" vertex="1" connectable="0" parent="1">
          <mxGeometry x="50" y="980" width="185" height="40" as="geometry" />
        </mxCell>
        <mxCell id="bjyF0Ei3XKulyTfPg9Wv-57" value="" style="ellipse;whiteSpace=wrap;html=1;aspect=fixed;" vertex="1" parent="bjyF0Ei3XKulyTfPg9Wv-56">
          <mxGeometry width="40" height="40" as="geometry" />
        </mxCell>
        <mxCell id="bjyF0Ei3XKulyTfPg9Wv-58" value="Character&amp;nbsp;2" style="text;html=1;strokeColor=none;fillColor=none;align=left;verticalAlign=middle;whiteSpace=wrap;rounded=0;" vertex="1" parent="bjyF0Ei3XKulyTfPg9Wv-56">
          <mxGeometry x="55" y="5" width="130" height="30" as="geometry" />
        </mxCell>
        <mxCell id="bjyF0Ei3XKulyTfPg9Wv-59" value="" style="group" vertex="1" connectable="0" parent="1">
          <mxGeometry x="50" y="1030" width="185" height="40" as="geometry" />
        </mxCell>
        <mxCell id="bjyF0Ei3XKulyTfPg9Wv-60" value="" style="ellipse;whiteSpace=wrap;html=1;aspect=fixed;" vertex="1" parent="bjyF0Ei3XKulyTfPg9Wv-59">
          <mxGeometry width="40" height="40" as="geometry" />
        </mxCell>
        <mxCell id="bjyF0Ei3XKulyTfPg9Wv-61" value="Character&amp;nbsp;3" style="text;html=1;strokeColor=none;fillColor=none;align=left;verticalAlign=middle;whiteSpace=wrap;rounded=0;" vertex="1" parent="bjyF0Ei3XKulyTfPg9Wv-59">
          <mxGeometry x="55" y="5" width="130" height="30" as="geometry" />
        </mxCell>
        <mxCell id="bjyF0Ei3XKulyTfPg9Wv-63" value="" style="rounded=0;whiteSpace=wrap;html=1;" vertex="1" parent="1">
          <mxGeometry x="640" y="800" width="320" height="560" as="geometry" />
        </mxCell>
        <mxCell id="bjyF0Ei3XKulyTfPg9Wv-64" value="" style="rounded=0;whiteSpace=wrap;html=1;" vertex="1" parent="1">
          <mxGeometry x="640" y="1300" width="320" height="60" as="geometry" />
        </mxCell>
        <mxCell id="bjyF0Ei3XKulyTfPg9Wv-65" value="My favorites" style="ellipse;whiteSpace=wrap;html=1;aspect=fixed;" vertex="1" parent="1">
          <mxGeometry x="730" y="1310" width="40" height="40" as="geometry" />
        </mxCell>
        <mxCell id="bjyF0Ei3XKulyTfPg9Wv-66" value="Characters" style="ellipse;whiteSpace=wrap;html=1;aspect=fixed;fillColor=#dae8fc;strokeColor=#6c8ebf;" vertex="1" parent="1">
          <mxGeometry x="830" y="1310" width="40" height="40" as="geometry" />
        </mxCell>
        <mxCell id="bjyF0Ei3XKulyTfPg9Wv-67" value="&lt;h1&gt;Character 3&lt;br&gt;&lt;/h1&gt;" style="text;html=1;strokeColor=none;fillColor=none;spacing=5;spacingTop=-20;whiteSpace=wrap;overflow=hidden;rounded=0;" vertex="1" parent="1">
          <mxGeometry x="720" y="830" width="190" height="40" as="geometry" />
        </mxCell>
        <mxCell id="bjyF0Ei3XKulyTfPg9Wv-81" value="Estos items se tiene que poder abrir y poder ser eliminados desde el listado. Si se trata de eliminar, tenemos que mostrar una alerta &quot;estás seguro?&quot;" style="text;html=1;strokeColor=#9673a6;fillColor=#e1d5e7;align=center;verticalAlign=middle;whiteSpace=wrap;rounded=0;" vertex="1" parent="1">
          <mxGeometry x="365" y="210" width="185" height="100" as="geometry" />
        </mxCell>
        <mxCell id="bjyF0Ei3XKulyTfPg9Wv-82" value="Estos items se tiene que poder abrir y poder ser agregados a favoritos desde el listado." style="text;html=1;strokeColor=#9673a6;fillColor=#e1d5e7;align=center;verticalAlign=middle;whiteSpace=wrap;rounded=0;" vertex="1" parent="1">
          <mxGeometry x="367.5" y="1000" width="185" height="100" as="geometry" />
        </mxCell>
        <mxCell id="bjyF0Ei3XKulyTfPg9Wv-84" style="edgeStyle=orthogonalEdgeStyle;rounded=0;orthogonalLoop=1;jettySize=auto;html=1;" edge="1" parent="1" source="bjyF0Ei3XKulyTfPg9Wv-20" target="bjyF0Ei3XKulyTfPg9Wv-63">
          <mxGeometry relative="1" as="geometry">
            <Array as="points">
              <mxPoint x="175" y="680" />
              <mxPoint x="800" y="680" />
            </Array>
          </mxGeometry>
        </mxCell>
        <mxCell id="bjyF0Ei3XKulyTfPg9Wv-85" style="edgeStyle=orthogonalEdgeStyle;rounded=0;orthogonalLoop=1;jettySize=auto;html=1;entryX=0;entryY=0.5;entryDx=0;entryDy=0;" edge="1" parent="1" source="bjyF0Ei3XKulyTfPg9Wv-61" target="bjyF0Ei3XKulyTfPg9Wv-63">
          <mxGeometry relative="1" as="geometry">
            <Array as="points">
              <mxPoint x="280" y="1050" />
              <mxPoint x="280" y="1170" />
              <mxPoint x="590" y="1170" />
              <mxPoint x="590" y="1080" />
            </Array>
          </mxGeometry>
        </mxCell>
        <mxCell id="bjyF0Ei3XKulyTfPg9Wv-86" value="" style="verticalLabelPosition=bottom;shadow=0;dashed=0;align=center;html=1;verticalAlign=top;strokeWidth=1;shape=mxgraph.mockup.containers.userMale;strokeColor=#666666;strokeColor2=#008cff;" vertex="1" parent="1">
          <mxGeometry x="660" y="889" width="280" height="280" as="geometry" />
        </mxCell>
        <mxCell id="bjyF0Ei3XKulyTfPg9Wv-87" value="&lt;h1&gt;Heading&lt;/h1&gt;&lt;p&gt;Lorem ipsum dolor sit amet, consectetur adipisicing elit, sed do eiusmod tempor incididunt ut labore et dolore magna aliqua.&lt;/p&gt;" style="text;html=1;strokeColor=none;fillColor=none;spacing=5;spacingTop=-20;whiteSpace=wrap;overflow=hidden;rounded=0;" vertex="1" parent="1">
          <mxGeometry x="660" y="1180" width="190" height="120" as="geometry" />
        </mxCell>
        <mxCell id="bjyF0Ei3XKulyTfPg9Wv-88" value="&amp;lt;" style="rounded=1;whiteSpace=wrap;html=1;align=center;fillColor=#ffe6cc;strokeColor=#d79b00;" vertex="1" parent="1">
          <mxGeometry x="660" y="830" width="47.5" height="40" as="geometry" />
        </mxCell>
        <mxCell id="bjyF0Ei3XKulyTfPg9Wv-89" value="Fav" style="rounded=1;whiteSpace=wrap;html=1;align=center;fillColor=#ffe6cc;strokeColor=#d79b00;" vertex="1" parent="1">
          <mxGeometry x="892.5" y="830" width="47.5" height="40" as="geometry" />
        </mxCell>
        <mxCell id="bjyF0Ei3XKulyTfPg9Wv-90" value="Si el Personaje está agregado tiene que estar iluminado. Si está agregado y el usuario clicka en el boton debe de aparecer un alert &quot;desea eliminar de favoritos?&quot;" style="text;html=1;strokeColor=#9673a6;fillColor=#e1d5e7;align=center;verticalAlign=middle;whiteSpace=wrap;rounded=0;" vertex="1" parent="1">
          <mxGeometry x="980" y="810" width="185" height="100" as="geometry" />
        </mxCell>
        <mxCell id="6ql8LfTuGevrxLZPXRcy-1" value="" style="rounded=0;whiteSpace=wrap;html=1;" vertex="1" parent="1">
          <mxGeometry x="40" y="1440" width="320" height="560" as="geometry" />
        </mxCell>
        <mxCell id="6ql8LfTuGevrxLZPXRcy-2" value="" style="rounded=0;whiteSpace=wrap;html=1;" vertex="1" parent="1">
          <mxGeometry x="40" y="1940" width="320" height="60" as="geometry" />
        </mxCell>
        <mxCell id="6ql8LfTuGevrxLZPXRcy-3" value="My favorites" style="ellipse;whiteSpace=wrap;html=1;aspect=fixed;" vertex="1" parent="1">
          <mxGeometry x="130" y="1950" width="40" height="40" as="geometry" />
        </mxCell>
        <mxCell id="6ql8LfTuGevrxLZPXRcy-4" value="Characters" style="ellipse;whiteSpace=wrap;html=1;aspect=fixed;fillColor=#dae8fc;strokeColor=#6c8ebf;" vertex="1" parent="1">
          <mxGeometry x="230" y="1950" width="40" height="40" as="geometry" />
        </mxCell>
        <mxCell id="6ql8LfTuGevrxLZPXRcy-5" value="&lt;h1&gt;Characters&lt;br&gt;&lt;/h1&gt;" style="text;html=1;strokeColor=none;fillColor=none;spacing=5;spacingTop=-20;whiteSpace=wrap;overflow=hidden;rounded=0;" vertex="1" parent="1">
          <mxGeometry x="55" y="1470" width="190" height="40" as="geometry" />
        </mxCell>
        <mxCell id="6ql8LfTuGevrxLZPXRcy-6" value="Search" style="rounded=1;whiteSpace=wrap;html=1;align=left;" vertex="1" parent="1">
          <mxGeometry x="55" y="1510" width="227.5" height="40" as="geometry" />
        </mxCell>
        <mxCell id="6ql8LfTuGevrxLZPXRcy-7" value="O" style="rounded=1;whiteSpace=wrap;html=1;align=center;fillColor=#ffe6cc;strokeColor=#d79b00;" vertex="1" parent="1">
          <mxGeometry x="292.5" y="1510" width="47.5" height="40" as="geometry" />
        </mxCell>
        <mxCell id="6ql8LfTuGevrxLZPXRcy-8" value="" style="group" vertex="1" connectable="0" parent="1">
          <mxGeometry x="52.5" y="1570" width="185" height="40" as="geometry" />
        </mxCell>
        <mxCell id="6ql8LfTuGevrxLZPXRcy-9" value="" style="ellipse;whiteSpace=wrap;html=1;aspect=fixed;" vertex="1" parent="6ql8LfTuGevrxLZPXRcy-8">
          <mxGeometry width="40" height="40" as="geometry" />
        </mxCell>
        <mxCell id="6ql8LfTuGevrxLZPXRcy-10" value="Character 1" style="text;html=1;strokeColor=none;fillColor=none;align=left;verticalAlign=middle;whiteSpace=wrap;rounded=0;" vertex="1" parent="6ql8LfTuGevrxLZPXRcy-8">
          <mxGeometry x="55" y="5" width="130" height="30" as="geometry" />
        </mxCell>
        <mxCell id="6ql8LfTuGevrxLZPXRcy-11" value="" style="group" vertex="1" connectable="0" parent="1">
          <mxGeometry x="52.5" y="1620" width="185" height="40" as="geometry" />
        </mxCell>
        <mxCell id="6ql8LfTuGevrxLZPXRcy-12" value="" style="ellipse;whiteSpace=wrap;html=1;aspect=fixed;" vertex="1" parent="6ql8LfTuGevrxLZPXRcy-11">
          <mxGeometry width="40" height="40" as="geometry" />
        </mxCell>
        <mxCell id="6ql8LfTuGevrxLZPXRcy-13" value="Character&amp;nbsp;2" style="text;html=1;strokeColor=none;fillColor=none;align=left;verticalAlign=middle;whiteSpace=wrap;rounded=0;" vertex="1" parent="6ql8LfTuGevrxLZPXRcy-11">
          <mxGeometry x="55" y="5" width="130" height="30" as="geometry" />
        </mxCell>
        <mxCell id="6ql8LfTuGevrxLZPXRcy-14" value="" style="group" vertex="1" connectable="0" parent="1">
          <mxGeometry x="52.5" y="1670" width="185" height="40" as="geometry" />
        </mxCell>
        <mxCell id="6ql8LfTuGevrxLZPXRcy-15" value="" style="ellipse;whiteSpace=wrap;html=1;aspect=fixed;" vertex="1" parent="6ql8LfTuGevrxLZPXRcy-14">
          <mxGeometry width="40" height="40" as="geometry" />
        </mxCell>
        <mxCell id="6ql8LfTuGevrxLZPXRcy-16" value="Character&amp;nbsp;3" style="text;html=1;strokeColor=none;fillColor=none;align=left;verticalAlign=middle;whiteSpace=wrap;rounded=0;" vertex="1" parent="6ql8LfTuGevrxLZPXRcy-14">
          <mxGeometry x="55" y="5" width="130" height="30" as="geometry" />
        </mxCell>
        <mxCell id="6ql8LfTuGevrxLZPXRcy-18" value="" style="rounded=1;whiteSpace=wrap;html=1;" vertex="1" parent="1">
          <mxGeometry x="150" y="1550" width="187.5" height="180" as="geometry" />
        </mxCell>
        <mxCell id="6ql8LfTuGevrxLZPXRcy-20" value="&lt;h1&gt;Ordenar por&lt;/h1&gt;&lt;p&gt;(-) Nombre&lt;/p&gt;&lt;p&gt;( ) Status&lt;/p&gt;&lt;p&gt;( ) ...&lt;/p&gt;" style="text;html=1;strokeColor=none;fillColor=none;spacing=5;spacingTop=-20;whiteSpace=wrap;overflow=hidden;rounded=0;" vertex="1" parent="1">
          <mxGeometry x="155" y="1560" width="190" height="120" as="geometry" />
        </mxCell>
        <mxCell id="6ql8LfTuGevrxLZPXRcy-21" value="Scroll infinito" style="text;html=1;strokeColor=#9673a6;fillColor=#e1d5e7;align=center;verticalAlign=middle;whiteSpace=wrap;rounded=0;" vertex="1" parent="1">
          <mxGeometry x="370" y="1200" width="185" height="100" as="geometry" />
        </mxCell>
      </root>
    </mxGraphModel>
  </diagram>
  <diagram id="32VVOnH3xpLMD1E_LZru" name="architecture">
    <mxGraphModel dx="1100" dy="840" grid="1" gridSize="10" guides="1" tooltips="1" connect="1" arrows="1" fold="1" page="1" pageScale="1" pageWidth="827" pageHeight="1169" math="0" shadow="0">
      <root>
        <mxCell id="0" />
        <mxCell id="1" parent="0" />
      </root>
    </mxGraphModel>
  </diagram>
</mxfile>
